<svg width="141" height="57" viewBox="0 0 141 57" fill="none" xmlns="http://www.w3.org/2000/svg">
<g clip-path="url(#clip0_52_3)">
<path d="M28.6004 0C40.9355 0 51.4467 7.78161 55.4602 18.6872C55.6733 19.2665 56.219 19.665 56.8379 19.665H132.086C132.482 19.665 132.859 19.828 133.13 20.1154L140.339 27.7784C140.867 28.3395 140.853 29.2168 140.307 29.7606L133.67 36.3743C133.13 36.9121 132.262 36.9326 131.697 36.421L124.222 29.65C123.68 29.1586 122.853 29.1555 122.306 29.6429L114.62 36.5022C114.086 36.9788 113.28 36.9876 112.735 36.5225L104.607 29.5799C104.072 29.1224 103.281 29.1224 102.746 29.5799L94.0679 36.9919C93.8088 37.2133 93.4787 37.335 93.1372 37.335H56.8379C56.219 37.335 55.6733 37.7334 55.4602 38.3128C51.4467 49.2184 40.9355 57 28.6004 57C12.8048 57 0 44.24 0 28.5C0 12.7599 12.8048 0 28.6004 0ZM31.3904 14.5239C28.6164 13.974 25.7411 14.2561 23.1281 15.3346C20.515 16.4131 18.2816 18.2398 16.7103 20.5832C15.139 22.9266 14.3002 25.6816 14.3002 28.5C14.3002 31.3184 15.139 34.0735 16.7103 36.4167C18.2816 38.7603 20.515 40.5869 23.1281 41.6653C25.7411 42.744 28.6164 43.0259 31.3904 42.4761C33.6953 42.0193 35.844 41.0049 37.6521 39.5321C38.2636 39.0339 38.2596 38.1253 37.7011 37.5687L34.718 34.5961C34.1595 34.0395 33.26 34.0541 32.6025 34.4901C31.8202 35.0091 30.9399 35.3733 30.0093 35.558C28.6084 35.8356 27.1563 35.6931 25.8367 35.1485C24.5172 34.6038 23.3895 33.6813 22.596 32.498C21.8025 31.3147 21.3788 29.9233 21.3788 28.5C21.3788 27.0767 21.8025 25.6853 22.596 24.5019C23.3895 23.3186 24.5172 22.3961 25.8367 21.8515C27.1563 21.3068 28.6084 21.1644 30.0093 21.4421C30.9399 21.6265 31.8202 21.9909 32.6025 22.5099C33.26 22.946 34.1595 22.9603 34.718 22.4039L37.7011 19.4313C38.2596 18.8748 38.2636 17.9662 37.6521 17.468C35.844 15.9949 33.6953 14.9807 31.3904 14.5239Z" fill="white"/>
<path d="M88.3466 55.86C88.1273 55.86 87.9368 55.7793 87.7746 55.6177L84.9146 52.7677C84.7622 52.6158 84.6858 52.4257 84.6858 52.1977V43.8472C84.6858 43.6192 84.7622 43.4292 84.9146 43.2772L87.7746 40.4272C87.9368 40.2657 88.1273 40.185 88.3466 40.185H95.9972C96.2355 40.185 96.3548 40.3038 96.3548 40.5412V55.5037C96.3548 55.7412 96.2355 55.86 95.9972 55.86H92.4079C92.2743 55.86 92.1648 55.8409 92.079 55.803C91.9932 55.7651 91.9123 55.7032 91.8359 55.6177L91.1209 54.9052L90.4059 55.6177C90.2437 55.7793 90.0532 55.86 89.8339 55.86H88.3466ZM90.4917 51.1147H90.5489C90.7396 51.1147 90.8826 51.0626 90.9779 50.958C91.0731 50.8534 91.1209 50.7063 91.1209 50.5162V44.9302H90.5203C90.3295 44.9302 90.1819 44.9824 90.077 45.087C89.972 45.1916 89.9197 45.3387 89.9197 45.5287V50.5162C89.9197 50.7063 89.9674 50.8534 90.0627 50.958C90.1676 51.0626 90.3106 51.1147 90.4917 51.1147ZM97.9192 55.86C97.6807 55.86 97.5617 55.7412 97.5617 55.5037V40.5412C97.5617 40.3038 97.6807 40.185 97.9192 40.185H104.14C104.359 40.185 104.55 40.2657 104.712 40.4272L106.471 42.18H107L108.759 40.4272C108.921 40.2657 109.111 40.185 109.331 40.185H112.005C112.224 40.185 112.415 40.2657 112.577 40.4272L115.437 43.2772C115.589 43.4292 115.666 43.6192 115.666 43.8472V55.5037C115.666 55.7412 115.546 55.86 115.308 55.86H110.789C110.551 55.86 110.432 55.7412 110.432 55.5037V45.999C110.432 45.6094 110.232 45.4147 109.831 45.4147H109.231V55.5037C109.231 55.7412 109.111 55.86 108.873 55.86H104.354C104.116 55.86 103.997 55.7412 103.997 55.5037V45.999C103.997 45.6094 103.797 45.4147 103.396 45.4147H102.796V55.5037C102.796 55.7412 102.676 55.86 102.438 55.86H97.9192ZM122.696 55.86C122.629 55.86 122.558 55.8506 122.481 55.8315C122.415 55.8124 122.343 55.7839 122.267 55.746L119.65 54.5062L117.119 53.295C116.947 53.2189 116.861 53.0291 116.861 52.725V43.8472C116.861 43.6192 116.938 43.4292 117.09 43.2772L119.95 40.4272C120.112 40.2657 120.303 40.185 120.522 40.185H124.869C125.089 40.185 125.279 40.2657 125.441 40.4272L128.301 43.2772C128.454 43.4292 128.53 43.6192 128.53 43.8472V49.6897H122.295V50.2312L123.482 50.7585L126.228 51.5422C126.333 51.5517 126.385 51.699 126.385 51.984V55.5037C126.385 55.7412 126.266 55.86 126.028 55.86H122.696ZM122.882 46.9822H122.91C123.273 46.9822 123.544 46.8777 123.725 46.6687C123.916 46.4598 124.011 46.1509 124.011 45.7425V45.6997C124.011 45.2913 123.916 44.9824 123.725 44.7735C123.544 44.5646 123.273 44.46 122.91 44.46H122.867C122.534 44.46 122.272 44.5646 122.081 44.7735C121.9 44.9824 121.809 45.2913 121.809 45.6997V45.7425C121.809 46.1509 121.9 46.4598 122.081 46.6687C122.262 46.8777 122.529 46.9822 122.882 46.9822Z" fill="white"/>
<path d="M69.0056 55.86C68.6624 55.86 68.3764 55.7389 68.1476 55.4966L63.8576 51.2216C63.6145 50.9936 63.4929 50.7086 63.4929 50.3666V32.8391C63.4929 32.5114 63.6145 32.2264 63.8576 31.9841L68.1476 27.7091C68.3764 27.4811 68.6624 27.3671 69.0056 27.3671H81.6828C82.0403 27.3671 82.219 27.5453 82.219 27.9015V32.5185C82.219 32.8748 82.0403 33.0529 81.6828 33.0529H71.3652C71.165 33.0529 70.9934 33.1241 70.8504 33.2666C70.7074 33.4091 70.6359 33.5801 70.6359 33.7796V49.4048C70.6359 49.6043 70.7074 49.7753 70.8504 49.9178C70.9934 50.0603 71.165 50.1315 71.3652 50.1315H75.9984V44.4244H73.2528C72.8953 44.4244 72.7166 44.2463 72.7166 43.89V39.2944C72.7166 38.9381 72.8953 38.76 73.2528 38.76H82.0474C82.4049 38.76 82.5837 38.9381 82.5837 39.2944V50.3666C82.5837 50.7086 82.4621 50.9936 82.219 51.2216L77.929 55.4966C77.7002 55.7389 77.4142 55.86 77.071 55.86H69.0056Z" fill="white"/>
<mask id="mask0_52_3" style="mask-type:luminance" maskUnits="userSpaceOnUse" x="62" y="26" width="22" height="31">
<path d="M83.2272 26.79H62.9209V56.43H83.2272V26.79Z" fill="white"/>
<path d="M69.0056 55.86C68.6624 55.86 68.3764 55.7389 68.1476 55.4966L63.8576 51.2216C63.6145 50.9936 63.4929 50.7086 63.4929 50.3666V32.8391C63.4929 32.5114 63.6145 32.2264 63.8576 31.9841L68.1476 27.7091C68.3764 27.4811 68.6624 27.3671 69.0056 27.3671H81.6828C82.0403 27.3671 82.219 27.5453 82.219 27.9015V32.5185C82.219 32.8748 82.0403 33.0529 81.6828 33.0529H71.3652C71.165 33.0529 70.9934 33.1241 70.8504 33.2666C70.7074 33.4091 70.6359 33.5801 70.6359 33.7796V49.4048C70.6359 49.6043 70.7074 49.7753 70.8504 49.9178C70.9934 50.0603 71.165 50.1315 71.3652 50.1315H75.9984V44.4244H73.2528C72.8953 44.4244 72.7166 44.2463 72.7166 43.89V39.2944C72.7166 38.9381 72.8953 38.76 73.2528 38.76H82.0474C82.4049 38.76 82.5837 38.9381 82.5837 39.2944V50.3666C82.5837 50.7086 82.4621 50.9936 82.219 51.2216L77.929 55.4966C77.7002 55.7389 77.4142 55.86 77.071 55.86H69.0056Z" fill="black"/>
</mask>
<g mask="url(#mask0_52_3)">
<path d="M68.1476 55.4966L68.564 55.1059L68.5583 55.0996L68.552 55.0936L68.1476 55.4966ZM63.8576 51.2216L64.262 50.8186L64.256 50.8124L64.2497 50.8067L63.8576 51.2216ZM75.9984 50.1315V50.7015H76.5704V50.1315H75.9984ZM75.9984 44.4244H76.5704V43.8544H75.9984V44.4244ZM82.219 51.2216L81.8269 50.8067L81.8206 50.8124L81.8146 50.8186L82.219 51.2216ZM77.929 55.4966L77.5246 55.0936L77.5183 55.0996L77.5125 55.1059L77.929 55.4966ZM69.0056 55.86V55.29C68.8152 55.29 68.6816 55.2301 68.564 55.1059L68.1476 55.4966L67.7312 55.8874C68.0713 56.2476 68.5097 56.43 69.0056 56.43V55.86ZM68.1476 55.4966L68.552 55.0936L64.262 50.8186L63.8576 51.2216L63.4531 51.6246L67.7432 55.8996L68.1476 55.4966ZM63.8576 51.2216L64.2497 50.8067C64.125 50.6895 64.0649 50.5564 64.0649 50.3666H63.4929H62.9209C62.9209 50.8608 63.1039 51.2977 63.4655 51.6366L63.8576 51.2216ZM63.4929 50.3666H64.0649V32.8391H63.4929H62.9209V50.3666H63.4929ZM63.4929 32.8391H64.0649C64.0649 32.6701 64.1207 32.5279 64.262 32.3871L63.8576 31.9841L63.4531 31.5811C63.1082 31.9248 62.9209 32.3526 62.9209 32.8391H63.4929ZM63.8576 31.9841L64.262 32.3871L68.552 28.1122L68.1476 27.7091L67.7432 27.3061L63.4531 31.5811L63.8576 31.9841ZM68.1476 27.7091L68.552 28.1122C68.6667 27.9981 68.804 27.9371 69.0056 27.9371V27.3671V26.7971C68.5209 26.7971 68.0861 26.9642 67.7432 27.3061L68.1476 27.7091ZM69.0056 27.3671V27.9371H81.6828V27.3671V26.7971H69.0056V27.3671ZM81.6828 27.3671V27.9371C81.7262 27.9371 81.7408 27.9427 81.7365 27.9413C81.7337 27.9403 81.7259 27.9375 81.7154 27.931C81.7042 27.9245 81.6922 27.9155 81.6805 27.9038C81.6688 27.8921 81.6596 27.88 81.653 27.8691C81.6467 27.8584 81.6439 27.8507 81.6427 27.8479C81.6413 27.8436 81.647 27.8582 81.647 27.9015H82.219H82.791C82.791 27.6355 82.7238 27.3313 82.4893 27.0977C82.2551 26.864 81.9496 26.7971 81.6828 26.7971V27.3671ZM82.219 27.9015H81.647V32.5185H82.219H82.791V27.9015H82.219ZM82.219 32.5185H81.647C81.647 32.5618 81.6413 32.5763 81.6427 32.5721C81.6439 32.5692 81.6467 32.5615 81.653 32.551C81.6596 32.5399 81.6688 32.5279 81.6805 32.5162C81.6922 32.5045 81.7042 32.4954 81.7154 32.4889C81.7259 32.4826 81.7337 32.4797 81.7365 32.4786C81.7408 32.4772 81.7262 32.4829 81.6828 32.4829V33.0529V33.6229C81.9496 33.6229 82.2551 33.5559 82.4893 33.3222C82.7238 33.0888 82.791 32.7844 82.791 32.5185H82.219ZM81.6828 33.0529V32.4829H71.3652V33.0529V33.6229H81.6828V33.0529ZM71.3652 33.0529V32.4829C71.0117 32.4829 70.6951 32.6154 70.446 32.8636L70.8504 33.2666L71.2548 33.6696C71.2917 33.6328 71.3183 33.6229 71.3652 33.6229V33.0529ZM70.8504 33.2666L70.446 32.8636C70.1968 33.1119 70.0639 33.4274 70.0639 33.7796H70.6359H71.2079C71.2079 33.7329 71.2179 33.7064 71.2548 33.6696L70.8504 33.2666ZM70.6359 33.7796H70.0639V49.4047H70.6359H71.2079V33.7796H70.6359ZM70.6359 49.4047H70.0639C70.0639 49.757 70.1968 50.0725 70.446 50.3207L70.8504 49.9177L71.2548 49.5148C71.2179 49.478 71.2079 49.4515 71.2079 49.4047H70.6359ZM70.8504 49.9177L70.446 50.3207C70.6951 50.569 71.0117 50.7015 71.3652 50.7015V50.1315V49.5615C71.3183 49.5615 71.2917 49.5515 71.2548 49.5148L70.8504 49.9177ZM71.3652 50.1315V50.7015H75.9984V50.1315V49.5615H71.3652V50.1315ZM75.9984 50.1315H76.5704V44.4244H75.9984H75.4264V50.1315H75.9984ZM75.9984 44.4244V43.8544H73.2528V44.4244V44.9944H75.9984V44.4244ZM73.2528 44.4244V43.8544C73.2093 43.8544 73.1947 43.8487 73.199 43.8501C73.2019 43.8512 73.2096 43.8541 73.2202 43.8604C73.2313 43.8669 73.2434 43.876 73.2551 43.8877C73.2668 43.8994 73.276 43.9114 73.2825 43.9225C73.2888 43.933 73.2917 43.9407 73.2928 43.9436C73.2943 43.9478 73.2885 43.9333 73.2885 43.89H72.7165H72.1445C72.1445 44.1559 72.2117 44.4603 72.4463 44.6937C72.6805 44.9274 72.986 44.9944 73.2528 44.9944V44.4244ZM72.7165 43.89H73.2885V39.2944H72.7165H72.1445V43.89H72.7165ZM72.7165 39.2944H73.2885C73.2885 39.251 73.2943 39.2365 73.2928 39.2408C73.2917 39.2436 73.2888 39.2513 73.2825 39.2619C73.276 39.273 73.2668 39.285 73.2551 39.2966C73.2434 39.3083 73.2313 39.3175 73.2202 39.324C73.2096 39.3303 73.2019 39.3331 73.199 39.3343C73.1947 39.3357 73.2093 39.33 73.2528 39.33V38.76V38.19C72.986 38.19 72.6805 38.257 72.4463 38.4907C72.2117 38.7241 72.1445 39.0285 72.1445 39.2944H72.7165ZM73.2528 38.76V39.33H82.0474V38.76V38.19H73.2528V38.76ZM82.0474 38.76V39.33C82.0909 39.33 82.1055 39.3357 82.1012 39.3343C82.0983 39.3331 82.0906 39.3303 82.08 39.324C82.0689 39.3175 82.0569 39.3083 82.0451 39.2966C82.0334 39.285 82.0243 39.273 82.0177 39.2619C82.0114 39.2513 82.0085 39.2436 82.0074 39.2408C82.0059 39.2365 82.0117 39.251 82.0117 39.2944H82.5837H83.1557C83.1557 39.0285 83.0885 38.7241 82.854 38.4907C82.6197 38.257 82.3143 38.19 82.0474 38.19V38.76ZM82.5837 39.2944H82.0117V50.3666H82.5837H83.1557V39.2944H82.5837ZM82.5837 50.3666H82.0117C82.0117 50.5564 81.9516 50.6895 81.8269 50.8067L82.219 51.2216L82.6111 51.6366C82.9726 51.2977 83.1557 50.8608 83.1557 50.3666H82.5837ZM82.219 51.2216L81.8146 50.8186L77.5246 55.0936L77.929 55.4966L78.3334 55.8996L82.6234 51.6246L82.219 51.2216ZM77.929 55.4966L77.5125 55.1059C77.395 55.2301 77.2614 55.29 77.071 55.29V55.86V56.43C77.5669 56.43 78.0053 56.2476 78.3454 55.8874L77.929 55.4966ZM77.071 55.86V55.29H69.0056V55.86V56.43H77.071V55.86Z" fill="#8FABD4"/>
</g>
</g>
<defs>
<clipPath id="clip0_52_3">
<rect width="141" height="57" fill="white"/>
</clipPath>
</defs>
</svg>
